<svg xmlns="http://www.w3.org/2000/svg" viewBox="0 0 64 64" fill="currentColor"><path d="M31 62 L31 8 L33 8 L33 62 Z M32 4 C29 4 27 6 28 9 C30 9 34 9 36 9 C37 6 35 4 32 4 Z M28 12 C22 10 14 10 12 14 C16 16 26 16 30 14 Z M36 12 C42 10 50 10 52 14 C48 16 38 16 34 14 Z M28 22 C22 20 14 20 12 24 C16 26 26 26 30 24 Z M36 22 C42 20 50 20 52 24 C48 26 38 26 34 24 Z M28 32 C22 30 14 30 12 34 C16 36 26 36 30 34 Z M36 32 C42 30 50 30 52 34 C48 36 38 36 34 34 Z M28 42 C22 40 14 40 12 44 C16 46 26 46 30 44 Z M36 42 C42 40 50 40 52 44 C48 46 38 46 34 44 Z M28 52 C22 50 14 50 12 54 C16 56 26 56 30 54 Z M36 52 C42 50 50 50 52 54 C48 56 38 56 34 54 Z"></path></svg>