<svg xmlns="http://www.w3.org/2000/svg" viewBox="0 0 64 64" fill="currentColor"><path d="M31 62 L31 4 L33 4 L33 62 Z M32 2 Q28 4 30 8 Q32 6 34 8 Q36 4 32 2 Z M30 12 Q14 6 8 14 Q20 16 30 14 Z M34 12 Q50 6 56 14 Q44 16 34 14 Z M30 22 Q14 16 8 24 Q20 26 30 24 Z M34 22 Q50 16 56 24 Q44 26 34 24 Z M30 32 Q14 26 8 34 Q20 36 30 34 Z M34 32 Q50 26 56 34 Q44 36 34 34 Z M30 42 Q14 36 8 44 Q20 46 30 44 Z M34 42 Q50 36 56 44 Q44 46 34 44 Z M30 52 Q14 46 8 54 Q20 56 30 54 Z M34 52 Q50 46 56 54 Q44 56 34 54 Z"></path></svg>